<?xml version="1.0" encoding="UTF-8" standalone="no"?>
<svg
   viewBox="0 0 24 24"
   version="1.1"
   id="svg1"
   sodipodi:docname="communities.svg"
   inkscape:version="1.4.2 (ebf0e940d0, 2025-05-08)"
   xmlns:inkscape="http://www.inkscape.org/namespaces/inkscape"
   xmlns:sodipodi="http://sodipodi.sourceforge.net/DTD/sodipodi-0.dtd"
   xmlns="http://www.w3.org/2000/svg"
   xmlns:svg="http://www.w3.org/2000/svg">
  <defs
     id="defs1" />
  <sodipodi:namedview
     id="namedview1"
     pagecolor="#ffffff"
     bordercolor="#000000"
     borderopacity="0.25"
     inkscape:showpageshadow="2"
     inkscape:pageopacity="0.0"
     inkscape:pagecheckerboard="0"
     inkscape:deskcolor="#d1d1d1"
     inkscape:zoom="11.313709"
     inkscape:cx="26.560698"
     inkscape:cy="11.888233"
     inkscape:window-width="1393"
     inkscape:window-height="1032"
     inkscape:window-x="0"
     inkscape:window-y="0"
     inkscape:window-maximized="1"
     inkscape:current-layer="svg1" />
  <path
     d="M12,5.5A3.5,3.5 0 0,1 15.5,9A3.5,3.5 0 0,1 12,12.5A3.5,3.5 0 0,1 8.5,9A3.5,3.5 0 0,1 12,5.5M5,8C5.56,8 6.08,8.15 6.53,8.42C6.38,9.85 6.8,11.27 7.66,12.38C7.16,13.34 6.16,14 5,14A3,3 0 0,1 2,11A3,3 0 0,1 5,8M19,8A3,3 0 0,1 22,11A3,3 0 0,1 19,14C17.84,14 16.84,13.34 16.34,12.38C17.2,11.27 17.62,9.85 17.47,8.42C17.92,8.15 18.44,8 19,8M5.5,18.25C5.5,16.18 8.41,14.5 12,14.5C15.59,14.5 18.5,16.18 18.5,18.25V20H5.5V18.25M0,20V18.5C0,17.11 1.89,15.94 4.45,15.6C3.86,16.28 3.5,17.22 3.5,18.25V20H0M24,20H20.5V18.25C20.5,17.22 20.14,16.28 19.55,15.6C22.11,15.94 24,17.11 24,18.5V20Z"
     id="path1" />
  <path
     style="fill:#ffffff;stroke-width:0.0105016"
     d="M 4.793974,13.987291 C 4.222485,13.948094 3.668961,13.741001 3.2002237,13.391012 3.0254003,13.260478 2.7421688,12.978224 2.6138722,12.806684 2.4080087,12.531433 2.2600704,12.250284 2.1579895,11.940303 1.7340419,10.652935 2.2201143,9.2547364 3.3533936,8.5016963 4.254066,7.9032186 5.4177619,7.8418402 6.3744626,8.342352 c 0.1290982,0.06754 0.1468431,0.07998 0.1455525,0.1020469 -8.084e-4,0.013822 -0.00672,0.1038151 -0.013127,0.1999856 -0.085183,1.2777179 0.2983484,2.5862775 1.0622223,3.6241665 l 0.083141,0.112966 -0.038577,0.07081 c -0.054887,0.100752 -0.2012208,0.317828 -0.284889,0.422615 -0.1000987,0.125365 -0.3462452,0.369914 -0.4734246,0.470353 -0.4866732,0.384346 -1.0483845,0.599974 -1.6742479,0.642706 -0.1672939,0.01142 -0.2114163,0.01134 -0.3871394,-7.12e-4 z"
     id="path7" />
  <path
     style="fill:#ffffff;stroke-width:0.0883883"
     d="m 5.5242717,19.017542 c 0,-1.154953 0.1263736,-1.626117 0.6068327,-2.26248 0.6025034,-0.79801 1.7389255,-1.456345 3.2380604,-1.875824 0.9898982,-0.276988 3.1754972,-0.38417 4.2672202,-0.209266 2.136063,0.342217 3.962869,1.377384 4.565745,2.587196 0.208015,0.417433 0.22684,0.549129 0.22684,1.586905 v 1.131694 H 11.976621 5.5242717 Z"
     id="path8" />
  <path
     style="fill:#ffffff;stroke-width:0.0883883"
     d="M 11.181126,12.341325 C 10.132676,12.052686 9.3973271,11.442638 8.9104975,10.457605 8.6066685,9.8428491 8.5817686,9.7339212 8.5837541,9.0282233 8.5853876,8.4476157 8.6339547,8.1416237 8.7861545,7.753021 9.0656803,7.0393244 9.7963836,6.2707798 10.546524,5.9014871 11.090782,5.6335493 11.197275,5.6126614 12.018957,5.612678 c 0.800761,1.63e-5 0.936623,0.024936 1.416072,0.2597355 0.674557,0.3303496 1.352763,1.0075531 1.680129,1.6776446 0.353262,0.7231011 0.412686,1.8090388 0.138746,2.5355189 -0.27803,0.737327 -0.674658,1.278604 -1.226454,1.673736 -0.859877,0.615745 -1.929407,0.834441 -2.846324,0.582012 z"
     id="path9" />
  <path
     style="fill:#ffffff;stroke-width:0.0883883"
     d="m 18.247824,13.850452 c -0.558604,-0.158264 -0.98041,-0.437635 -1.450962,-0.961001 l -0.402365,-0.447528 0.194272,-0.321039 c 0.106849,-0.176572 0.243839,-0.400589 0.304422,-0.497816 0.274866,-0.441123 0.58163,-1.613076 0.628687,-2.4018236 l 0.04889,-0.81954 0.407001,-0.1570853 c 0.636947,-0.245834 1.609865,-0.2115476 2.232698,0.078682 0.622027,0.2898548 1.18118,0.8527979 1.477788,1.4878055 0.303419,0.6495894 0.319461,1.6909464 0.0357,2.3172974 -0.257363,0.568081 -0.923673,1.257801 -1.476316,1.528184 -0.55685,0.272441 -1.425322,0.356631 -1.999819,0.193864 z"
     id="path10" />
  <path
     style="fill:#ffffff;stroke-width:0.0883883"
     d="m 20.550291,18.910458 c 0,-1.289381 -0.166288,-2.095452 -0.570889,-2.767359 l -0.295306,-0.490404 0.278418,0.05265 c 2.121039,0.401084 3.703467,1.407774 3.93896,2.505843 0.05278,0.246101 0.09596,0.743809 0.09596,1.106018 v 0.658563 h -1.723572 -1.723573 z"
     id="path11" />
  <path
     style="fill:#ffffff;stroke-width:0.0883883"
     d="m 0.04419417,19.109238 c 0,-0.758417 0.02898591,-0.924696 0.23232528,-1.332745 0.26947403,-0.540764 0.83856865,-1.028891 1.65154285,-1.416568 0.8104805,-0.386489 2.2703842,-0.76249 2.2703842,-0.584741 0,0.02313 -0.080211,0.172287 -0.1782478,0.331456 -0.3870487,0.628402 -0.528859,1.33657 -0.528859,2.641 v 1.228127 H 1.7677669 0.04419417 Z"
     id="path12" />
</svg>
