<?xml version="1.0" encoding="UTF-8" standalone="no"?>
<svg
   viewBox="0 0 24 24"
   version="1.1"
   id="svg1"
   sodipodi:docname="history.svg"
   inkscape:version="1.4.2 (ebf0e940d0, 2025-05-08)"
   xmlns:inkscape="http://www.inkscape.org/namespaces/inkscape"
   xmlns:sodipodi="http://sodipodi.sourceforge.net/DTD/sodipodi-0.dtd"
   xmlns="http://www.w3.org/2000/svg"
   xmlns:svg="http://www.w3.org/2000/svg">
  <defs
     id="defs1" />
  <sodipodi:namedview
     id="namedview1"
     pagecolor="#ffffff"
     bordercolor="#000000"
     borderopacity="0.25"
     inkscape:showpageshadow="2"
     inkscape:pageopacity="0.0"
     inkscape:pagecheckerboard="0"
     inkscape:deskcolor="#d1d1d1"
     inkscape:zoom="16.833333"
     inkscape:cx="11.970297"
     inkscape:cy="11.970297"
     inkscape:window-width="1068"
     inkscape:window-height="1032"
     inkscape:window-x="0"
     inkscape:window-y="0"
     inkscape:window-maximized="1"
     inkscape:current-layer="svg1" />
  <path
     d="M13.5,8H12V13L16.28,15.54L17,14.33L13.5,12.25V8M13,3A9,9 0 0,0 4,12H1L4.96,16.03L9,12H6A7,7 0 0,1 13,5A7,7 0 0,1 20,12A7,7 0 0,1 13,19C11.07,19 9.32,18.21 8.06,16.94L6.64,18.36C8.27,20 10.5,21 13,21A9,9 0 0,0 22,12A9,9 0 0,0 13,3"
     id="path1" />
  <path
     style="fill:#ffffff;stroke-width:0.0594059"
     d="M 12.148515,20.935309 C 10.485086,20.696684 9.3086857,20.284941 8.1683168,19.542229 7.6865537,19.22846 6.7128713,18.443739 6.7128713,18.36924 c 0,-0.02236 0.2983479,-0.339845 0.6629952,-0.70553 l 0.6629959,-0.664881 0.3914596,0.332688 c 0.8379297,0.712126 1.779514,1.202702 2.839344,1.479328 0.785769,0.205093 2.106886,0.257091 2.922483,0.115027 3.376497,-0.588134 5.827653,-3.501208 5.827653,-6.925872 0,-2.3590194 -1.141404,-4.5061526 -3.105621,-5.8420873 C 16.131746,5.6257508 15.177258,5.2457185 14.192149,5.0741276 13.375995,4.9319664 12.055486,4.9840517 11.268524,5.189445 8.9467527,5.7954167 7.1086693,7.4927745 6.3494703,9.7318907 6.139647,10.350725 6,11.105449 6,11.620605 v 0.377319 l 1.4558335,0.01589 1.455834,0.01589 -1.9770558,1.976339 -1.9770554,1.97634 L 3.0085815,13.991191 1.0596067,12 h 1.4810247 1.4810247 l 0.036181,-0.579208 C 4.1561298,9.847279 4.6576549,8.3771199 5.551991,7.040865 6.9272519,4.9860457 8.9929461,3.6271896 11.435644,3.1704775 c 0.878087,-0.1641764 2.451181,-0.149413 3.297029,0.030942 2.437561,0.519747 4.462443,1.89616 5.777558,3.927293 0.652334,1.0074997 1.066451,2.0333281 1.301535,3.2240935 0.172602,0.874281 0.183323,2.346641 0.02324,3.191748 -0.698466,3.687336 -3.42753,6.475199 -7.097757,7.250681 -0.549181,0.116036 -2.151805,0.202753 -2.588734,0.140074 z"
     id="path2" />
  <path
     style="fill:#ffffff;stroke-width:0.0594059"
     d="m 14.138614,14.233773 -2.108911,-1.259795 -0.0155,-2.477088 -0.0155,-2.477088 h 0.743226 0.743227 v 2.132136 2.132136 l 1.722772,1.022857 c 0.947525,0.562571 1.722772,1.035366 1.722772,1.050655 0,0.03021 -0.663281,1.151008 -0.675636,1.141673 -0.0041,-0.0031 -0.956542,-0.572598 -2.116443,-1.265486 z"
     id="path3" />
</svg>
