<?xml version="1.0" encoding="UTF-8" standalone="no"?>
<svg
   viewBox="0 0 24 24"
   version="1.1"
   id="svg1"
   sodipodi:docname="privacy.svg"
   inkscape:version="1.4.2 (ebf0e940d0, 2025-05-08)"
   xmlns:inkscape="http://www.inkscape.org/namespaces/inkscape"
   xmlns:sodipodi="http://sodipodi.sourceforge.net/DTD/sodipodi-0.dtd"
   xmlns="http://www.w3.org/2000/svg"
   xmlns:svg="http://www.w3.org/2000/svg">
  <defs
     id="defs1" />
  <sodipodi:namedview
     id="namedview1"
     pagecolor="#ffffff"
     bordercolor="#000000"
     borderopacity="0.25"
     inkscape:showpageshadow="2"
     inkscape:pageopacity="0.0"
     inkscape:pagecheckerboard="0"
     inkscape:deskcolor="#d1d1d1"
     inkscape:zoom="16.833333"
     inkscape:cx="11.970297"
     inkscape:cy="11.970297"
     inkscape:window-width="1068"
     inkscape:window-height="1032"
     inkscape:window-x="0"
     inkscape:window-y="0"
     inkscape:window-maximized="1"
     inkscape:current-layer="svg1" />
  <path
     d="M21,11C21,16.55 17.16,21.74 12,23C6.84,21.74 3,16.55 3,11V5L12,1L21,5V11M12,21C15.75,20 19,15.54 19,11.22V6.3L12,3.18L5,6.3V11.22C5,15.54 8.25,20 12,21M10,17L6,13L7.41,11.59L10,14.17L16.59,7.58L18,9"
     id="path1" />
  <path
     style="fill:#ffffff;stroke-width:0.0594059"
     d="M 11.138614,22.701954 C 9.5419812,22.144355 8.2691014,21.362433 7.0208937,20.172465 5.0159412,18.261061 3.7319234,15.857055 3.1952545,13.009901 3.0737522,12.365303 3.0652757,12.120466 3.0451161,8.6732673 L 3.0237502,5.019802 7.4169615,3.0702138 c 2.4162662,-1.0722734 4.4468345,-1.963611 4.5123745,-1.98075 0.07672,-0.020063 1.707853,0.6743203 4.579656,1.9495882 l 4.460492,1.98075 4.07e-4,3.2845194 c 4.81e-4,3.8928346 -0.04889,4.5155966 -0.479623,6.0495656 -0.97597,3.475738 -3.530971,6.547672 -6.614664,7.952956 -0.634951,0.289357 -1.64396,0.623895 -1.880819,0.623587 -0.111488,-1.45e-4 -0.496765,-0.102959 -0.856171,-0.228476 z m 1.311377,-1.814814 c 0.618631,-0.214378 0.835595,-0.315124 1.430572,-0.664277 2.400676,-1.408801 4.28851,-4.121356 4.957927,-7.123853 0.125792,-0.564203 0.133607,-0.750804 0.155493,-3.7128714 l 0.02304,-3.1188119 -3.508084,-1.5628689 -3.508084,-1.562869 -3.5089051,1.562869 -3.508905,1.5628689 0.023006,3.1188119 c 0.021851,2.9621464 0.02966,3.1486524 0.1554541,3.7128714 0.8077807,3.623086 3.3255881,6.703221 6.363243,7.784411 0.485459,0.172789 0.437903,0.172598 0.925239,0.0037 z"
     id="path2" />
  <path
     style="fill:#ffffff;stroke-width:0.0594059"
     d="M 8.0344035,14.9552 6.0594036,12.97954 6.727309,12.311635 7.3952144,11.64373 l 1.2926447,1.291643 1.2926447,1.291643 3.2968192,-3.296418 3.296819,-3.296418 0.683151,0.6831512 0.683151,0.6831511 -3.96552,3.9651887 -3.965521,3.96519 z"
     id="path3" />
</svg>
