<?xml version="1.0" encoding="UTF-8" standalone="no"?>
<svg
   viewBox="0 0 24 24"
   version="1.1"
   id="svg1"
   sodipodi:docname="settings.svg"
   inkscape:version="1.4.2 (ebf0e940d0, 2025-05-08)"
   xmlns:inkscape="http://www.inkscape.org/namespaces/inkscape"
   xmlns:sodipodi="http://sodipodi.sourceforge.net/DTD/sodipodi-0.dtd"
   xmlns="http://www.w3.org/2000/svg"
   xmlns:svg="http://www.w3.org/2000/svg">
  <defs
     id="defs1" />
  <sodipodi:namedview
     id="namedview1"
     pagecolor="#ffffff"
     bordercolor="#000000"
     borderopacity="0.25"
     inkscape:showpageshadow="2"
     inkscape:pageopacity="0.0"
     inkscape:pagecheckerboard="0"
     inkscape:deskcolor="#d1d1d1"
     inkscape:zoom="16.833333"
     inkscape:cx="11.970297"
     inkscape:cy="11.970297"
     inkscape:window-width="1068"
     inkscape:window-height="1032"
     inkscape:window-x="0"
     inkscape:window-y="0"
     inkscape:window-maximized="1"
     inkscape:current-layer="svg1" />
  <path
     d="M12,15.5A3.5,3.5 0 0,1 8.5,12A3.5,3.5 0 0,1 12,8.5A3.5,3.5 0 0,1 15.5,12A3.5,3.5 0 0,1 12,15.5M19.43,12.97C19.47,12.65 19.5,12.33 19.5,12C19.5,11.67 19.47,11.34 19.43,11L21.54,9.37C21.73,9.22 21.78,8.95 21.66,8.73L19.66,5.27C19.54,5.05 19.27,4.96 19.05,5.05L16.56,6.05C16.04,5.66 15.5,5.32 14.87,5.07L14.5,2.42C14.46,2.18 14.25,2 14,2H10C9.75,2 9.54,2.18 9.5,2.42L9.13,5.07C8.5,5.32 7.96,5.66 7.44,6.05L4.95,5.05C4.73,4.96 4.46,5.05 4.34,5.27L2.34,8.73C2.21,8.95 2.27,9.22 2.46,9.37L4.57,11C4.53,11.34 4.5,11.67 4.5,12C4.5,12.33 4.53,12.65 4.57,12.97L2.46,14.63C2.27,14.78 2.21,15.05 2.34,15.27L4.34,18.73C4.46,18.95 4.73,19.03 4.95,18.95L7.44,17.94C7.96,18.34 8.5,18.68 9.13,18.93L9.5,21.58C9.54,21.82 9.75,22 10,22H14C14.25,22 14.46,21.82 14.5,21.58L14.87,18.93C15.5,18.67 16.04,18.34 16.56,17.94L19.05,18.95C19.27,19.03 19.54,18.95 19.66,18.73L21.66,15.27C21.78,15.05 21.73,14.78 21.54,14.63L19.43,12.97Z"
     id="path1" />
  <path
     style="fill:#ffffff;stroke-width:0.0594059"
     d="M 9.7127002,21.846535 C 9.5667558,21.720932 9.5453537,21.629272 9.3578127,20.326643 9.2480459,19.564218 9.1493661,18.932485 9.1385246,18.922793 9.1276824,18.913101 8.9450495,18.818343 8.7326733,18.712221 8.520297,18.606098 8.1522071,18.389069 7.9146954,18.229932 7.6771838,18.070796 7.4499561,17.940775 7.4097449,17.940996 c -0.040211,2.21e-4 -0.6315405,0.227449 -1.3140651,0.504951 -0.6825247,0.277502 -1.2892022,0.504548 -1.3481725,0.504548 -0.05897,0 -0.1733755,-0.06015 -0.2542341,-0.133663 -0.2200079,-0.200027 -2.1764415,-3.632061 -2.1764415,-3.817979 0,-0.198316 0.1051413,-0.298636 1.2811944,-1.222447 l 0.9526784,-0.748346 -0.00307,-1.049309 -0.00307,-1.049308 -1.009901,-0.774412 C 2.4196836,9.3000511 2.3168317,9.201657 2.3168317,8.989996 c 0,-0.1753277 1.9677003,-3.6170446 2.1764415,-3.8068277 0.080859,-0.073515 0.1929239,-0.1336633 0.2490341,-0.1336633 0.05611,0 0.6693057,0.2272277 1.3626568,0.5049504 0.6933511,0.2777228 1.2870205,0.5049505 1.3192652,0.5049505 0.032245,0 0.2529545,-0.1302022 0.4904661,-0.2893383 C 8.1522071,5.6109316 8.520297,5.3939019 8.7326733,5.2877794 8.9450495,5.1816569 9.1276824,5.0868994 9.1385246,5.0772073 9.1493661,5.0675151 9.2480459,4.4357824 9.3578127,3.673357 9.5453537,2.3707278 9.5667558,2.2790679 9.7127002,2.1534653 9.8675263,2.0202195 9.8746711,2.019802 12,2.019802 c 2.125329,0 2.132474,4.175e-4 2.2873,0.1336633 0.145944,0.1256026 0.167346,0.2172625 0.354887,1.5198917 0.109767,0.7624254 0.208447,1.3941927 0.219288,1.4039271 0.01084,0.00973 0.208991,0.1124501 0.440332,0.2282569 0.231339,0.1158069 0.599173,0.332802 0.817408,0.4822114 0.218235,0.1494095 0.423429,0.2716535 0.455987,0.2716535 0.03256,0 0.626483,-0.2272277 1.319834,-0.5049505 0.693351,-0.2777227 1.302089,-0.5049504 1.352751,-0.5049504 0.05066,0 0.149241,0.040013 0.219062,0.088919 0.163507,0.1145242 2.216319,3.6632283 2.216319,3.8313578 0,0.069926 -0.02454,0.1729948 -0.05454,0.2290414 -0.02999,0.056046 -0.533402,0.4708111 -1.118683,0.9216988 l -1.064146,0.819796 0.0048,1.047507 0.0048,1.047507 1.039604,0.817988 c 0.571782,0.449893 1.073019,0.863637 1.113861,0.919431 0.04084,0.05579 0.07426,0.165154 0.07426,0.243024 0,0.178078 -2.044228,3.725265 -2.216319,3.845801 -0.06982,0.04891 -0.17074,0.08892 -0.224262,0.08892 -0.05352,0 -0.655742,-0.227046 -1.338267,-0.504548 -0.682524,-0.277502 -1.27345,-0.50473 -1.313167,-0.504951 -0.03972,-2.21e-4 -0.299302,0.147622 -0.576854,0.32854 -0.277553,0.180918 -0.651808,0.396317 -0.831677,0.478663 -0.277283,0.126945 -0.332071,0.178574 -0.360142,0.339375 -0.01821,0.10431 -0.111189,0.737674 -0.206623,1.407476 -0.161709,1.134961 -0.184073,1.226916 -0.328691,1.351485 C 14.13247,21.979783 14.125369,21.980198 12,21.980198 c -2.1253289,0 -2.1324737,-4.18e-4 -2.2872998,-0.133663 z M 13.154386,15.336819 C 14.168932,14.969721 14.958544,14.18137 15.340307,13.154386 15.450985,12.85665 15.47161,12.677566 15.473253,12 15.474924,11.311158 15.456443,11.148305 15.342252,10.845614 14.953593,9.8153786 14.182932,9.0448806 13.154386,8.6582109 12.853553,8.5451162 12.684614,8.5257285 12,8.5257285 c -0.684614,0 -0.853553,0.019388 -1.154386,0.1324824 -1.0311788,0.3876594 -1.8136673,1.1716919 -2.183095,2.1874031 -0.1600527,0.440052 -0.2161414,1.435816 -0.1082739,1.922224 0.2777555,1.252483 1.2698062,2.285737 2.5486949,2.654551 0.428421,0.123551 1.609673,0.07428 2.051446,-0.08557 z"
     id="path2" />
</svg>
