<?xml version="1.0" encoding="UTF-8" standalone="no"?>
<svg
   viewBox="0 0 24 24"
   version="1.1"
   id="svg1"
   sodipodi:docname="support.svg"
   inkscape:version="1.4.2 (ebf0e940d0, 2025-05-08)"
   xmlns:inkscape="http://www.inkscape.org/namespaces/inkscape"
   xmlns:sodipodi="http://sodipodi.sourceforge.net/DTD/sodipodi-0.dtd"
   xmlns="http://www.w3.org/2000/svg"
   xmlns:svg="http://www.w3.org/2000/svg">
  <defs
     id="defs1" />
  <sodipodi:namedview
     id="namedview1"
     pagecolor="#ffffff"
     bordercolor="#000000"
     borderopacity="0.25"
     inkscape:showpageshadow="2"
     inkscape:pageopacity="0.0"
     inkscape:pagecheckerboard="0"
     inkscape:deskcolor="#d1d1d1"
     inkscape:zoom="16.833333"
     inkscape:cx="11.970297"
     inkscape:cy="11.970297"
     inkscape:window-width="1068"
     inkscape:window-height="1032"
     inkscape:window-x="0"
     inkscape:window-y="0"
     inkscape:window-maximized="1"
     inkscape:current-layer="svg1" />
  <path
     d="M18.72,14.76C19.07,13.91 19.26,13 19.26,12C19.26,11.28 19.15,10.59 18.96,9.95C18.31,10.1 17.63,10.18 16.92,10.18C13.86,10.18 11.15,8.67 9.5,6.34C8.61,8.5 6.91,10.26 4.77,11.22C4.73,11.47 4.73,11.74 4.73,12A7.27,7.27 0 0,0 12,19.27C13.05,19.27 14.06,19.04 14.97,18.63C15.54,19.72 15.8,20.26 15.78,20.26C14.14,20.81 12.87,21.08 12,21.08C9.58,21.08 7.27,20.13 5.57,18.42C4.53,17.38 3.76,16.11 3.33,14.73H2V10.18H3.09C3.93,6.04 7.6,2.92 12,2.92C14.4,2.92 16.71,3.87 18.42,5.58C19.69,6.84 20.54,8.45 20.89,10.18H22V14.67H22V14.69L22,14.73H21.94L18.38,18L13.08,17.4V15.73H17.91L18.72,14.76M9.27,11.77C9.57,11.77 9.86,11.89 10.07,12.11C10.28,12.32 10.4,12.61 10.4,12.91C10.4,13.21 10.28,13.5 10.07,13.71C9.86,13.92 9.57,14.04 9.27,14.04C8.64,14.04 8.13,13.54 8.13,12.91C8.13,12.28 8.64,11.77 9.27,11.77M14.72,11.77C15.35,11.77 15.85,12.28 15.85,12.91C15.85,13.54 15.35,14.04 14.72,14.04C14.09,14.04 13.58,13.54 13.58,12.91A1.14,1.14 0 0,1 14.72,11.77Z"
     id="path1" />
  <path
     style="fill:#ffffff;stroke-width:0.0594059"
     d="M 10.435187,20.906736 C 7.2733868,20.350141 4.5476115,18.066046 3.4925916,15.089109 L 3.3557449,14.70297 2.6877734,14.686173 2.019802,14.669376 v -2.225777 -2.225777 l 0.5495049,-3.39e-4 0.549505,-3.4e-4 L 3.22806,9.7570865 C 3.6329746,8.0519432 4.7360866,6.2948867 6.1483051,5.1056678 9.7815695,2.0461226 15.11026,2.2927732 18.445545,5.6748735 19.561203,6.806192 20.40004,8.2964734 20.760218,9.7871287 l 0.104066,0.4306933 h 0.557957 0.557957 v 2.214617 2.214617 l -1.582871,1.4537 c -0.870579,0.799534 -1.688856,1.545172 -1.818392,1.656971 l -0.235521,0.203271 -2.60735,-0.29183 -2.607351,-0.291829 v -0.817382 -0.817383 l 2.420792,-0.0032 2.420792,-0.0032 0.400933,-0.486852 c 0.430621,-0.522905 0.576711,-0.865948 0.789945,-1.854919 0.152157,-0.705698 0.142632,-2.079116 -0.01971,-2.841388 -0.0686,-0.322131 -0.136758,-0.5977167 -0.151454,-0.6124137 -0.0147,-0.014697 -0.241196,0.013963 -0.50333,0.06369 C 16.118996,10.45334 13.52567,9.8361582 11.518043,8.3457408 10.985608,7.9504731 10.156691,7.1356011 9.7981075,6.6549477 9.6532081,6.4607206 9.518236,6.3007326 9.4981699,6.2994187 c -0.020066,-0.00131 -0.080475,0.1128016 -0.1342432,0.25359 -0.1416,0.370774 -0.6517538,1.2415346 -1.0314724,1.7605785 -0.7321275,1.0007564 -2.1380059,2.1788258 -3.2379871,2.7133038 -0.414956,0.201626 -0.4351646,0.268848 -0.3814027,1.268706 0.1053209,1.958748 0.8405577,3.603362 2.1979744,4.916539 1.3293765,1.286051 2.848412,1.952254 4.7252991,2.072373 0.913473,0.05846 2.143192,-0.13626 2.97027,-0.470332 l 0.344924,-0.139321 0.391322,0.776434 0.391321,0.776433 -0.39679,0.13575 c -0.559402,0.191383 -1.673411,0.476837 -2.261008,0.57936 -0.683607,0.119275 -1.849065,0.103347 -2.64119,-0.0361 z"
     id="path2" />
  <path
     style="fill:#ffffff;stroke-width:0.0594059"
     d="m 8.92345,13.955784 c -0.2971576,-0.09032 -0.6349131,-0.462503 -0.7175529,-0.790695 -0.0906,-0.359805 -0.010471,-0.674499 0.2461696,-0.966797 0.6621298,-0.754124 1.8876833,-0.307713 1.9027813,0.693093 0.01096,0.726818 -0.7297886,1.277648 -1.431398,1.064399 z"
     id="path3" />
  <path
     style="fill:#ffffff;stroke-width:0.0594059"
     d="m 14.284671,13.911661 c -0.834082,-0.391107 -0.89538,-1.487965 -0.108913,-1.948865 0.224346,-0.131476 0.317231,-0.151146 0.612784,-0.129768 1.329527,0.09617 1.349583,2.024353 0.02248,2.161602 -0.206074,0.02131 -0.353532,-0.0019 -0.526355,-0.08297 z"
     id="path4" />
</svg>
