<?xml version="1.0" encoding="UTF-8" standalone="no"?>
<svg
   viewBox="0 0 24 24"
   version="1.1"
   id="svg1"
   sodipodi:docname="tasks.svg"
   inkscape:version="1.4.2 (ebf0e940d0, 2025-05-08)"
   xmlns:inkscape="http://www.inkscape.org/namespaces/inkscape"
   xmlns:sodipodi="http://sodipodi.sourceforge.net/DTD/sodipodi-0.dtd"
   xmlns="http://www.w3.org/2000/svg"
   xmlns:svg="http://www.w3.org/2000/svg">
  <defs
     id="defs1" />
  <sodipodi:namedview
     id="namedview1"
     pagecolor="#ffffff"
     bordercolor="#000000"
     borderopacity="0.25"
     inkscape:showpageshadow="2"
     inkscape:pageopacity="0.0"
     inkscape:pagecheckerboard="0"
     inkscape:deskcolor="#d1d1d1"
     inkscape:zoom="16.833333"
     inkscape:cx="11.970297"
     inkscape:cy="12"
     inkscape:window-width="1068"
     inkscape:window-height="607"
     inkscape:window-x="0"
     inkscape:window-y="0"
     inkscape:window-maximized="1"
     inkscape:current-layer="svg1" />
  <path
     d="M16,9H21.5L16,3.5V9M7,2H17L23,8V18A2,2 0 0,1 21,20H7C5.89,20 5,19.1 5,18V4A2,2 0 0,1 7,2M3,6V22H21V24H3A2,2 0 0,1 1,22V6H3Z"
     id="path1" />
  <path
     style="fill:#ffffff;stroke-width:0.0594059"
     d="M 6.6072782,19.927579 C 6.0288259,19.812271 5.4987303,19.385985 5.2131544,18.80647 L 5.0792079,18.534653 V 10.990099 3.4455446 L 5.2366568,3.1485149 C 5.4371347,2.7703103 5.7703103,2.4371347 6.1485149,2.2366568 l 0.2970297,-0.1574489 5.2856544,-0.016107 5.285654,-0.016107 2.987729,2.9864045 2.987728,2.9864044 -0.01596,5.1980202 -0.01596,5.19802 -0.158044,0.337137 c -0.221757,0.47305 -0.573471,0.83191 -1.015373,1.036005 l -0.371137,0.171412 -7.277228,0.0089 c -4.002475,0.0049 -7.3915764,-0.01388 -7.5313358,-0.04173 z M 21.50495,8.9849091 c 0,-0.0083 -1.243069,-1.2579449 -2.762376,-2.7769883 L 15.980198,3.4460237 V 6.2230118 9 h 2.762376 c 1.519307,0 2.762376,-0.00679 2.762376,-0.015091 z"
     id="path2" />
  <path
     style="fill:#ffffff;stroke-width:0.0594059"
     d="M 2.4653465,23.887199 C 1.7656006,23.665898 1.2837356,23.160833 1.1016207,22.457816 1.0211284,22.147092 1.009901,21.119938 1.009901,14.066727 V 6.029703 h 0.980198 0.980198 v 7.990099 7.990099 h 9 9 v 0.980198 0.980198 l -9.133663,-0.004 c -7.1910343,-0.0031 -9.1842037,-0.01996 -9.3712875,-0.07912 z"
     id="path3" />
</svg>
